#define gma_icon_width 16
#define gma_icon_height 16
static unsigned char gma_icon_bits[] = {
   0x00, 0x00, 0x00, 0x00, 0xc0, 0x0f, 0x20, 0x18, 0x10, 0x10, 0x08, 0x00,
   0x08, 0x00, 0x08, 0x00, 0x08, 0x1e, 0x08, 0x10, 0x08, 0x10, 0x10, 0x10,
   0x20, 0x10, 0xc0, 0x0f, 0x00, 0x00, 0x00, 0x00 };
