M48
INCH
T200C0.020
T199C0.128
T198C0.125
T197C0.035
T196C0.130
T195C0.043
T194C0.050
T193C0.038
T192C0.030
T191C0.042
T190C0.028
T189C0.045
T188C0.051
T187C0.149
T186C0.040
%
T200
X051300Y038800
X070000Y051000
X069750Y048000
X050700Y037800
T190
X064300Y029800
X066800Y024300
X067800Y024300
X069800Y024300
X066800Y021300
X067800Y021300
X069800Y021300
X070800Y021300
X070800Y024300
X072300Y021300
X073300Y021300
X075300Y021300
X072300Y024300
X073300Y024300
X075300Y024300
X076300Y024300
X077800Y024300
X078800Y024300
X076300Y021300
X077800Y021300
X078800Y021300
X080800Y021300
X080800Y024300
X081800Y024300
X081800Y021300
X069300Y028200
X068300Y028200
X070300Y029800
X069300Y029800
X068300Y029800
X067300Y028200
X066300Y028200
X065300Y028200
X064300Y028200
X067300Y029800
X067300Y026800
X068300Y026800
X069300Y026800
X070300Y026800
X066300Y029800
X066300Y026800
X065300Y029800
X065300Y026800
X063300Y029800
X063300Y026800
X064300Y026800
X074300Y028200
X075300Y028200
X076300Y028200
X077300Y028200
X078300Y028200
X079300Y028200
X077300Y029800
X076300Y029800
X075300Y029800
X074300Y029800
X073300Y029800
X073300Y026800
X074300Y026800
X075300Y026800
X076300Y026800
X034800Y021300
X035800Y021300
X034800Y024300
X035800Y024300
X037800Y021300
X037800Y024300
X038800Y021300
X040300Y021300
X041300Y021300
X043300Y021300
X044300Y021300
X008100Y021400
X007050Y021400
X017600Y021400
X019100Y021400
X020100Y021400
X022100Y021400
X023100Y021400
X024600Y021400
X025600Y021400
X027600Y021400
X028600Y021400
X040800Y028200
X039800Y028200
X039800Y029800
X038800Y029800
X037800Y029800
X036800Y029800
X038800Y028200
X037800Y028200
X036800Y026800
X037800Y026800
X038800Y026800
X039800Y026800
X040800Y026800
X014100Y026900
X015100Y026900
X016100Y026900
X017100Y026900
X020100Y026900
X021100Y026900
X022100Y026900
X023100Y026900
X024100Y026900
X025100Y026900
X026100Y026900
X027100Y026900
X011100Y026900
X012100Y026900
X013100Y026900
X007050Y024400
X008100Y024400
X009100Y024400
X011100Y024400
X009100Y021400
X011100Y021400
X012100Y021400
X013600Y021400
X014600Y021400
X016600Y021400
X012100Y024400
X013600Y024400
X014600Y024400
X016600Y024400
X019100Y024400
X020100Y024400
X022100Y024400
X023100Y024400
X017600Y024400
X016100Y028300
X015100Y028300
X014100Y028300
X017100Y029900
X016100Y029900
X015100Y029900
X024600Y024400
X025600Y024400
X027600Y024400
X028600Y024400
X021100Y028300
X022100Y028300
X023100Y028300
X024100Y028300
X025100Y028300
X026100Y028300
X027100Y029900
X026100Y029900
X025100Y029900
X024100Y029900
X023100Y029900
X022100Y029900
X021100Y029900
X020100Y029900
X014100Y029900
X013100Y029900
X012100Y029900
X011100Y029900
X010100Y029900
X013100Y028300
X012100Y028300
X011100Y028300
X010100Y026900
X019900Y043750
X016900Y043750
X017500Y049750
X016500Y049750
X015500Y049750
X014500Y049750
X013500Y049750
X012500Y049750
X040600Y052800
X040600Y051800
X040600Y050800
X040600Y049800
X040600Y048800
X046600Y048800
X046600Y049800
X046600Y050800
X046600Y051800
X046600Y052800
X035800Y040800
X037800Y040800
X032300Y041800
X032300Y042800
X032300Y043800
X032300Y044800
X032300Y045800
X032300Y046800
X040600Y047800
X040600Y046800
X040600Y045800
X040600Y044800
X040600Y043800
X040600Y042800
X040600Y041800
X040600Y040800
X040600Y039800
X040600Y038800
X040600Y037800
X040600Y036800
X040600Y035800
X040600Y034800
X080300Y029800
X079300Y029800
X078300Y029800
X077300Y026800
X078300Y026800
X079300Y026800
X080300Y026800
X059500Y038000
X059500Y039000
X059500Y040000
X059500Y041000
X059500Y042000
X059500Y043000
X073500Y038750
X072500Y038750
X071500Y038750
X070500Y038750
X069500Y038750
X068500Y038750
X067500Y038750
X066500Y038750
X065500Y038750
X064500Y038750
X064500Y035750
X065500Y035750
X066500Y035750
X067500Y035750
X068500Y035750
X069500Y035750
X070500Y035750
X071500Y035750
X072500Y035750
X073500Y035750
X059500Y044000
X045800Y021300
X045800Y024300
X046800Y021300
X046800Y024300
X048800Y024300
X047800Y028200
X049800Y024300
X051300Y024300
X052300Y024300
X048800Y028200
X049800Y028200
X050800Y028200
X051800Y028200
X052800Y028200
X050800Y026800
X051800Y026800
X052800Y026800
X033700Y021300
X033700Y024300
X040600Y033800
X056500Y044000
X056500Y043000
X056500Y042000
X056500Y041000
X056500Y040000
X056500Y039000
X058000Y040000
X058000Y041000
X058000Y042000
X058000Y043000
X056500Y038000
X055000Y043000
X055000Y042000
X055000Y041000
X055000Y040000
X055750Y048650
X055750Y046250
X046600Y033800
X046600Y034800
X046600Y035800
X046600Y036800
X046600Y037800
X046600Y038800
X046600Y039800
X046600Y040800
X046600Y041800
X046600Y042800
X046600Y043800
X046600Y044800
X046600Y045800
X046600Y046800
X046600Y047800
X052750Y048650
X052750Y046250
X048800Y021300
X049800Y021300
X051300Y021300
X052300Y021300
X038800Y024300
X040300Y024300
X041300Y024300
X043300Y024300
X044300Y024300
X054300Y024300
X042800Y028200
X041800Y028200
X043800Y029800
X042800Y029800
X041800Y029800
X040800Y029800
X050800Y029800
X049800Y029800
X048800Y029800
X047800Y029800
X046800Y029800
X041800Y026800
X042800Y026800
X043800Y026800
X046800Y026800
X047800Y026800
X048800Y026800
X049800Y026800
X053800Y026800
X054300Y021300
X055300Y021300
X055300Y024300
X061300Y021300
X061300Y024300
X062300Y024300
X060200Y024300
X060200Y021300
X053800Y029800
X052800Y029800
X051800Y029800
X062300Y021300
X064300Y021300
X065300Y021300
X064300Y024300
X065300Y024300
T192
X008600Y029350
X037800Y039800
X007600Y027350
X060750Y028250
X061750Y028250
X061750Y029250
X057750Y045250
X012000Y040500
X034250Y027250
X008600Y028350
X034250Y028250
X035800Y039800
X007600Y028350
X012000Y038500
X035250Y028250
X035250Y029250
X058750Y045250
X067000Y041250
X060750Y027250
X066000Y041250
X051300Y043100
X054250Y053000
X054250Y051000
X047800Y043800
X012000Y034500
X012000Y036500
X019900Y046600
X047800Y044800
X035800Y041800
X035800Y042800
X037800Y041800
X037800Y042800
X021900Y046600
T197
X081770Y042810
X081770Y041730
X081770Y040650
X080650Y041190
X080650Y040110
X070500Y050250
X071500Y050250
X072500Y050250
X073500Y050250
X060750Y050250
X061750Y050250
X062750Y050250
X063750Y050250
X063250Y049250
X062250Y049250
X073000Y049250
X072000Y049250
X071000Y049250
X065250Y047000
X070000Y049250
X061250Y049250
X060250Y049250
X080650Y044430
X081770Y043890
X080650Y043350
X080650Y042270
T193
X056750Y027750
X043750Y043750
X044750Y048750
X043750Y048750
X044750Y041750
X044750Y040750
X044750Y039750
X044750Y038750
X003600Y029850
X008000Y037500
X043750Y044750
X044750Y045750
X044750Y043750
X043750Y040750
X043750Y041750
X044750Y049750
X043750Y049750
X043750Y042750
X043750Y045750
X044750Y050750
X044750Y044750
X056750Y026750
X043750Y050750
X043750Y046750
X044750Y042750
X043750Y038750
X008000Y039500
X044750Y046750
X044750Y047750
X043750Y047750
X008000Y038500
X018900Y045100
X008000Y040500
X030250Y027750
X030250Y028750
X030250Y029750
X030250Y026750
X020900Y045100
X021900Y045100
X056750Y028750
X056750Y029750
X003600Y026850
X003600Y027850
X003600Y028850
X019900Y045100
X043750Y039750
X017900Y045100
T186
X054800Y009800
X053300Y015300
X045800Y015300
X047800Y015300
X061300Y015300
X080300Y010800
X082300Y010800
X074800Y010800
X076800Y010800
X081300Y009800
X075800Y009800
X070300Y009800
X077800Y015300
X079800Y015300
X072300Y015300
X074300Y015300
X069300Y010800
X071300Y010800
X063800Y010800
X065800Y010800
X064800Y009800
X078800Y014300
X073300Y014300
X067800Y014300
X062300Y014300
X066800Y015300
X068800Y015300
X063300Y015300
X048300Y010800
X049300Y009800
X050300Y010800
X051300Y015300
X010100Y015400
X009100Y014400
X055800Y010800
X053800Y010800
X015000Y038500
X014000Y037500
X015000Y036500
X042800Y010800
X037300Y010800
X038300Y009800
X039300Y010800
X043800Y009800
X044800Y010800
X052300Y014300
X046800Y014300
X041300Y014300
X035800Y014300
X040300Y015300
X042300Y015300
X034800Y015300
X036800Y015300
X027100Y010900
X028100Y009900
X029100Y010900
X021600Y010900
X022600Y009900
X023600Y010900
X016100Y010900
X017100Y009900
X018100Y010900
X010600Y010900
X012600Y010900
X011600Y009900
X024600Y015400
X026600Y015400
X019100Y015400
X021100Y015400
X025600Y014400
X020100Y014400
X014600Y014400
X013600Y015400
X015600Y015400
X008100Y015400
T191
X006600Y027350
X059750Y027250
X006600Y029350
X059750Y029250
X059750Y028250
X033250Y027250
X033250Y029250
X006600Y028350
X033250Y028250
T195
X004900Y023150
X058050Y023050
X008530Y044120
X006570Y044120
X006570Y046080
X014330Y046080
X008530Y046080
X014330Y044120
X035850Y034250
X035850Y035250
X036800Y046800
X012370Y044120
X031550Y023050
X032550Y023050
X012370Y046080
X059050Y023050
X035800Y046800
X034800Y045800
X033800Y045800
X036800Y044800
X035800Y044800
X034800Y043800
X033800Y043800
X005900Y023150
T189
X003450Y039550
X005100Y002900
X007068Y002900
X017474Y002900
X015506Y002900
X013537Y002900
X011568Y002900
X009600Y002900
X019442Y002900
X021411Y002900
X023380Y002900
X070674Y002800
X068706Y002800
X072642Y002800
X074611Y002800
X076580Y002800
X078548Y002800
X080516Y002800
X066737Y002800
X064768Y002800
X062800Y002800
X058300Y002800
X060268Y002800
X046142Y002800
X048111Y002800
X050080Y002800
X052048Y002800
X054016Y002800
X033768Y002800
X031800Y002800
X044174Y002800
X036300Y002800
X027316Y002900
X083500Y029937
X018874Y052750
X016906Y052750
X083500Y031906
X083500Y033874
X025348Y002900
X011000Y052750
X012968Y052750
X014937Y052750
X083500Y026000
X083500Y027968
X038268Y002800
X040237Y002800
X042206Y002800
X003450Y041518
T194
X005200Y029850
X010250Y036000
X031850Y029750
X010250Y039000
X005200Y026850
X058350Y029750
X031850Y026750
X058350Y026750
T188
X006166Y010100
X059366Y010000
X058000Y007000
X031500Y007000
X004800Y007100
X032866Y010000
T198
X081210Y037410
X081210Y047130
T199
X069500Y052750
X059750Y052750
X064250Y052750
X074000Y052750
T196
X021700Y037500
T187
X082500Y002500
X002500Y002500
X032189Y008500
X002500Y052500
X005489Y008600
X082500Y052500
X058689Y008500
M30
