M48
INCH
T71C0.043
T70C0.051
T69C0.149
T68C0.050
T67C0.042
T66C0.045
T65C0.040
T64C0.038
T63C0.030
T62C0.028
%
T62
X006000Y035700
X019000Y028300
X018000Y028300
X017000Y028300
X016000Y028300
X015000Y028300
X021000Y029900
X020000Y029900
X019000Y029900
X018000Y029900
X017000Y029900
X016000Y029900
X015000Y029900
X014000Y029900
X022000Y037700
X021000Y037700
X020000Y037700
X019000Y037700
X018000Y037700
X018000Y034700
X019000Y034700
X020000Y034700
X021000Y034700
X022000Y034700
X021000Y042400
X021000Y040400
X012000Y021400
X012000Y024400
X013000Y021400
X013000Y024400
X015000Y021400
X016000Y021400
X017500Y021400
X018500Y021400
X020500Y021400
X021500Y021400
X016000Y024400
X017500Y024400
X018500Y024400
X020500Y024400
X021500Y024400
X015000Y024400
X014000Y026900
X015000Y026900
X016000Y026900
X017000Y026900
X018000Y026900
X019000Y026900
X020000Y026900
X021000Y026900
X017000Y037700
X017000Y034700
X016000Y037700
X016000Y034700
X015000Y037700
X015000Y034700
X014000Y037700
X013000Y037700
X013000Y034700
X014000Y034700
X016000Y045900
X017000Y045900
X018000Y045900
X010500Y034700
X007500Y034700
X009000Y033700
X009000Y034700
X006000Y036700
X020000Y028300
X006000Y034700
X006000Y033700
X010500Y035700
X010500Y036700
X010500Y037700
X007500Y037700
X007500Y036700
X007500Y035700
X009000Y035700
X009000Y036700
X009000Y037700
X009000Y038700
X009000Y039700
X006000Y039700
X006000Y038700
X006000Y037700
X001300Y042400
X002300Y042400
X003300Y042400
X004300Y042400
X013000Y045900
X014000Y045900
X015000Y045900
X010500Y041400
X010500Y042400
X010500Y043400
X010500Y044400
X010500Y045400
X010500Y046400
T63
X022000Y040400
X023000Y040400
X011800Y035700
X020000Y040400
X011800Y033700
X006750Y032450
X007750Y032450
X012450Y028100
X007100Y022350
X007100Y024350
X023400Y037700
X023400Y036700
X012450Y029100
X003200Y024600
X005200Y024600
X011450Y028100
X011450Y027100
X026800Y034700
X027600Y037700
X026800Y036700
X027600Y035700
X022000Y042400
X020000Y042400
X023000Y042400
T64
X025200Y032700
X025200Y035700
X007200Y026600
X007200Y029600
X005700Y011600
X005700Y018050
X004700Y011600
X007200Y028600
X002700Y018050
X003700Y018050
X025200Y034700
X025200Y037700
X004700Y018050
X003700Y011600
X002700Y011600
X025200Y033700
X025200Y036700
X007200Y027600
T65
X017500Y011000
X022500Y011000
X024500Y011000
X016500Y010000
X023500Y010000
X012000Y015500
X013000Y014500
X014000Y015500
X019000Y015500
X020000Y014500
X021000Y015500
X005200Y022350
X004200Y023350
X003200Y022350
X015500Y011000
T67
X010450Y028100
X010450Y029100
X010450Y027100
T71
X017000Y043400
X016000Y041400
X014000Y041400
X018000Y042400
X018000Y041400
X017000Y044400
X016000Y042400
X015000Y044400
X014000Y042400
X015000Y043400
T66
X003300Y031626
X009000Y002900
X016063Y002900
X021968Y002900
X020000Y002900
X018032Y002900
X016332Y048900
X012394Y048900
X018300Y048900
X014363Y048900
X003300Y039500
X003300Y037532
X003300Y035563
X003300Y033594
X010968Y002900
X010426Y048900
X003300Y005800
X003300Y007768
X014094Y002900
T68
X002700Y019850
X008700Y029600
X005700Y019850
X008700Y026600
T70
X008700Y007100
X010066Y010100
T69
X002500Y049000
X009389Y008600
X026000Y002900
X002500Y002900
X026000Y049000
M30
